<?xml version="1.0" standalone="no"?>
<!DOCTYPE svg PUBLIC "-//W3C//DTD SVG 20010904//EN"
 "http://www.w3.org/TR/2001/REC-SVG-20010904/DTD/svg10.dtd">
<svg version="1.0" xmlns="http://www.w3.org/2000/svg"
 width="225.000000pt" height="225.000000pt" viewBox="0 0 225.000000 225.000000"
 preserveAspectRatio="xMidYMid meet">

<g transform="translate(0.000000,225.000000) scale(0.100000,-0.100000)"
fill="#000000" stroke="none">
<path d="M1466 1514 c-14 -13 -16 -63 -16 -389 0 -326 2 -376 16 -389 19 -20
19 -20 38 0 14 13 16 63 16 389 0 326 -2 376 -16 389 -8 9 -17 16 -19 16 -2 0
-11 -7 -19 -16z"/>
<path d="M900 1451 c-6 -12 -10 -135 -10 -328 0 -254 3 -313 14 -329 12 -15
18 -17 33 -8 17 10 18 35 21 334 2 326 0 350 -34 350 -7 0 -18 -9 -24 -19z"/>
<path d="M736 1404 c-8 -20 -8 -538 0 -558 8 -21 50 -21 58 0 8 20 8 538 0
558 -3 9 -16 16 -29 16 -13 0 -26 -7 -29 -16z"/>
<path d="M1062 1408 c-9 -9 -12 -86 -12 -284 0 -236 2 -273 16 -285 11 -9 20
-10 32 -2 15 9 17 41 20 283 2 272 -1 300 -32 300 -7 0 -17 -5 -24 -12z"/>
<path d="M1376 1394 c-8 -20 -8 -518 0 -538 10 -25 51 -20 58 7 8 29 8 495 0
525 -7 26 -48 31 -58 6z"/>
<path d="M1785 1384 c-13 -13 -15 -54 -15 -259 0 -205 2 -246 15 -259 9 -8 22
-13 30 -10 13 5 15 47 15 269 0 222 -2 264 -15 269 -8 3 -21 -2 -30 -10z"/>
<path d="M1146 1374 c-24 -23 -24 -475 0 -498 46 -46 54 -7 54 253 0 195 -2
232 -16 245 -8 9 -17 16 -19 16 -2 0 -11 -7 -19 -16z"/>
<path d="M1942 1378 c-9 -9 -12 -76 -12 -254 0 -202 2 -244 15 -254 8 -7 22
-10 30 -6 13 5 15 39 13 263 -3 221 -5 258 -18 261 -9 1 -21 -3 -28 -10z"/>
<path d="M347 1353 c-4 -3 -7 -107 -7 -230 0 -190 2 -224 15 -229 8 -4 22 -1
30 6 12 10 15 49 15 224 0 152 -3 215 -12 224 -13 13 -31 16 -41 5z"/>
<path d="M187 1313 c-4 -3 -7 -89 -7 -190 0 -155 2 -185 15 -189 8 -4 22 -1
30 6 12 10 15 44 15 184 0 120 -4 176 -12 184 -13 13 -31 16 -41 5z"/>
<path d="M1536 1274 c-8 -20 -8 -278 0 -298 3 -9 14 -16 23 -16 36 0 41 20 41
165 0 145 -5 165 -41 165 -9 0 -20 -7 -23 -16z"/>
<path d="M816 1248 c-8 -30 -8 -216 0 -245 7 -27 48 -32 58 -7 8 20 8 238 0
258 -10 25 -51 20 -58 -6z"/>
<path d="M1221 1256 c-8 -9 -11 -55 -9 -136 3 -102 6 -125 20 -133 12 -8 21
-7 32 2 13 11 16 36 16 135 0 120 -6 146 -36 146 -6 0 -17 -6 -23 -14z"/>
<path d="M976 1224 c-3 -9 -6 -53 -6 -99 0 -99 5 -115 35 -115 30 0 35 16 35
115 0 99 -5 115 -35 115 -13 0 -26 -7 -29 -16z"/>
<path d="M267 1213 c-4 -3 -7 -44 -7 -90 0 -65 3 -85 15 -89 31 -12 45 15 45
90 0 70 -10 96 -35 96 -7 0 -15 -3 -18 -7z"/>
<path d="M427 1213 c-4 -3 -7 -44 -7 -90 0 -65 3 -85 15 -89 31 -12 45 15 45
90 0 70 -10 96 -35 96 -7 0 -15 -3 -18 -7z"/>
<path d="M662 1208 c-19 -19 -16 -152 4 -169 11 -9 20 -10 32 -2 21 13 30 147
11 169 -14 17 -31 18 -47 2z"/>
<path d="M1862 1208 c-18 -18 -16 -152 3 -168 8 -7 22 -10 30 -6 23 8 18 179
-5 184 -9 1 -21 -3 -28 -10z"/>
<path d="M113 1203 c-20 -7 -18 -149 2 -157 8 -3 21 2 30 10 21 21 20 117 -1
138 -8 9 -16 16 -17 15 -1 0 -8 -3 -14 -6z"/>
<path d="M1616 1194 c-3 -9 -6 -40 -6 -69 0 -29 3 -60 6 -69 7 -17 54 -22 55
-6 0 6 0 39 0 75 0 36 0 70 0 75 -1 16 -48 11 -55 -6z"/>
<path d="M2016 1194 c-3 -9 -6 -40 -6 -69 0 -69 7 -85 36 -85 23 0 24 2 24 85
0 83 -1 85 -24 85 -13 0 -27 -7 -30 -16z"/>
<path d="M1306 1174 c-9 -8 -16 -31 -16 -49 0 -28 20 -65 35 -65 15 0 35 37
35 65 0 28 -20 65 -35 65 -2 0 -11 -7 -19 -16z"/>
<path d="M2107 1178 c-24 -13 -24 -94 1 -106 31 -17 42 -3 42 53 0 56 -12 71
-43 53z"/>
<path d="M496 1164 c-18 -46 0 -94 35 -94 19 0 29 20 29 55 0 38 -11 55 -35
55 -13 0 -26 -7 -29 -16z"/>
<path d="M1696 1164 c-16 -41 -3 -94 23 -94 26 0 41 21 41 55 0 17 -5 36 -12
43 -17 17 -45 15 -52 -4z"/>
<path d="M581 1153 c-5 -10 -9 -22 -9 -28 0 -5 4 -18 9 -27 23 -43 71 3 50 48
-12 28 -36 31 -50 7z"/>
</g>
</svg>
