<svg xmlns="http://www.w3.org/2000/svg" width="512" height="512" viewBox="0 0 512 512" version="1.1"><path d="M 268.500 90 C 268.840 90.550, 268.727 91, 268.250 91 C 267.773 91, 266.509 91.695, 265.441 92.545 C 264.285 93.465, 265.218 93.255, 267.750 92.025 C 272.473 89.729, 273.002 89, 269.941 89 C 268.809 89, 268.160 89.450, 268.500 90 M 210.170 129.538 C 204.489 134.192, 200.155 138, 200.540 138 C 201.341 138, 219.798 123.136, 220.593 121.850 C 221.556 120.291, 220.562 121.024, 210.170 129.538 M 250.322 128.497 C 246.374 131.500, 242.826 134.473, 242.437 135.103 C 242.047 135.733, 245.390 133.456, 249.864 130.043 C 256.887 124.687, 258.851 122.937, 257.750 123.019 C 257.613 123.029, 254.270 125.494, 250.322 128.497 M 175.890 202.750 C 168.169 212.342, 166.583 214.610, 170.568 210.360 C 174.558 206.104, 183.279 195, 182.631 195 C 182.354 195, 179.321 198.488, 175.890 202.750 M 280 199 C 277.940 199.660, 277.852 199.816, 279.500 199.885 C 280.600 199.931, 282.175 199.533, 283 199 C 284.752 197.868, 283.536 197.868, 280 199 M 251.500 207.535 C 248.999 208.740, 248.916 208.878, 251 208.369 C 253.834 207.677, 257.018 206.053, 255.500 206.076 C 254.950 206.084, 253.150 206.740, 251.500 207.535 M 392 227.603 C 385.125 233.397, 378.375 239.297, 377 240.715 C 375.625 242.133, 381.363 237.583, 389.750 230.604 C 402.908 219.657, 405.994 216.865, 404.750 217.034 C 404.613 217.053, 398.875 221.809, 392 227.603 M 217.750 222.068 C 215.688 223.157, 214 224.271, 214 224.544 C 214 224.817, 215.800 224.122, 218 223 C 220.200 221.878, 222 220.743, 222 220.480 C 222 219.826, 221.993 219.828, 217.750 222.068 M 161.750 257.499 C 156.938 261.064, 153 264.209, 153 264.487 C 153 264.965, 168.433 253.842, 170.450 251.910 C 172.937 249.528, 169.717 251.597, 161.750 257.499 M 127.615 270.500 C 123.475 276.909, 122.616 278.529, 124.168 277 C 125.928 275.268, 130.392 268, 129.697 268 C 129.440 268, 128.503 269.125, 127.615 270.500 M 478.881 460.781 C 478.552 462.769, 478.698 463.702, 479.253 463.147 C 479.757 462.643, 480.002 461.166, 479.797 459.865 C 479.482 457.864, 479.342 458.004, 478.881 460.781" stroke="none" fill="#04acf4" fill-rule="evenodd"/><path d="M 340.414 33.323 C 335.664 34.843, 331.339 38.660, 329.198 43.223 C 327.503 46.834, 327.187 49.604, 327.167 61 C 327.154 68.425, 327.111 77.726, 327.072 81.668 L 327 88.836 318.750 91.571 C 314.212 93.075, 308.025 95.594, 305 97.168 C 301.975 98.742, 298.455 100.228, 297.178 100.471 C 290.740 101.696, 268.511 115.391, 251.750 128.459 C 246.387 132.640, 242 135.778, 242 135.432 C 242 131.818, 183.060 190.944, 182.982 194.635 C 182.972 195.111, 178.475 200.900, 172.989 207.500 C 155.308 228.772, 136.204 255.569, 129.364 268.691 C 127.458 272.349, 124.626 276.952, 123.072 278.920 C 119.590 283.331, 110.648 297.982, 111.140 298.470 C 111.338 298.666, 114.650 296.120, 118.500 292.813 C 136.294 277.529, 169.703 251.026, 171.199 251.008 C 171.583 251.004, 177.658 247.246, 184.699 242.657 C 191.739 238.068, 200.425 232.627, 204 230.566 C 207.575 228.505, 212.922 225.304, 215.882 223.453 C 218.842 221.602, 221.542 220.174, 221.882 220.279 C 222.506 220.472, 237.369 214.117, 248.597 208.856 C 251.950 207.285, 255.325 206, 256.097 206 C 258.062 206.001, 275.125 201.115, 277.257 199.942 C 278.223 199.410, 281.328 198.754, 284.156 198.485 C 286.985 198.216, 292.044 197.496, 295.399 196.886 C 298.755 196.275, 305.100 195.624, 309.500 195.439 C 313.900 195.254, 319.637 194.839, 322.250 194.517 L 327 193.931 327.118 202.216 C 327.183 206.772, 327.212 217.250, 327.183 225.500 C 327.132 240.147, 328.122 248, 330.019 248 C 330.538 248, 331.246 249.130, 331.592 250.511 C 332.324 253.425, 336.866 256.966, 340.783 257.675 C 353.410 259.962, 356.111 259.061, 368 248.592 C 383.314 235.106, 404.162 217.500, 404.820 217.497 C 405.194 217.495, 421.359 204.257, 440.743 188.077 C 480.675 154.747, 480.782 154.625, 479.551 143.747 C 478.742 136.596, 476.946 132.666, 473.436 130.366 C 472.048 129.457, 469.415 127.315, 467.583 125.606 C 465.752 123.898, 461.484 120.250, 458.099 117.500 C 454.714 114.750, 450.044 110.784, 447.722 108.686 C 445.400 106.588, 442.375 104.237, 441 103.461 C 439.625 102.685, 436.712 100.238, 434.527 98.025 C 432.342 95.811, 430.159 94, 429.677 94 C 429.194 94, 426.745 91.975, 424.235 89.500 C 421.724 87.025, 419.262 85, 418.764 85 C 418.265 85, 415.646 82.862, 412.945 80.250 C 410.243 77.638, 407.688 75.496, 407.267 75.491 C 406.845 75.486, 404.282 73.348, 401.571 70.741 C 398.860 68.133, 396.281 66, 395.839 66 C 395.397 66, 392.922 63.975, 390.339 61.500 C 387.756 59.025, 385.281 57, 384.839 57 C 384.397 57, 381.922 54.975, 379.339 52.500 C 376.756 50.025, 374.290 48, 373.859 48 C 373.429 48, 370.993 45.975, 368.447 43.500 C 365.900 41.025, 363.169 39, 362.377 39 C 361.585 39, 360.672 38.308, 360.347 37.463 C 358.858 33.581, 347.185 31.157, 340.414 33.323 M 47.922 91.440 C 40.357 94.233, 35.468 98.310, 34.524 102.613 C 34.296 103.651, 33.635 106.072, 33.055 107.993 C 32.332 110.386, 32 166.603, 32 286.397 L 32 461.307 34.423 466.429 C 37.479 472.889, 39.751 475.021, 48 479.172 C 49.986 480.171, 92.363 480.413, 254 480.346 C 380.123 480.294, 459.281 479.896, 462.185 479.299 C 469.614 477.773, 476.863 471.231, 478.677 464.415 C 479.103 462.812, 479.527 398.725, 479.619 322 C 479.711 245.275, 479.564 183.400, 479.294 184.500 C 477.813 190.528, 474.863 193.755, 458.136 207.643 C 448.436 215.696, 438.587 224.114, 436.250 226.351 L 432 230.416 432 331.208 C 432 397.689, 431.660 432.024, 431 432.071 C 430.450 432.110, 352.375 432.141, 257.500 432.141 C 162.625 432.141, 83.875 432.110, 82.500 432.071 L 80 432 80 284.750 L 80 137.500 140.007 137.663 L 200.014 137.827 210.114 129.663 C 215.669 125.173, 220.503 121.490, 220.857 121.477 C 221.211 121.465, 224.901 118.924, 229.057 115.831 C 238.265 108.978, 252.016 100, 257.692 97.135 C 263.658 94.123, 269.191 90.232, 268.278 89.691 C 267.850 89.438, 219.350 89.264, 160.500 89.305 C 55.031 89.379, 53.420 89.410, 47.922 91.440" stroke="none" fill="#04acfc" fill-rule="evenodd"/></svg>