<?xml version="1.0" encoding="UTF-8"?>
<!-- Generator: Adobe Illustrator 26.3.1, SVG Export Plug-In . SVG Version: 6.00 Build 0)  -->
<svg version="1.1" xmlns="http://www.w3.org/2000/svg" xmlns:xlink="http://www.w3.org/1999/xlink" x="0px" y="0px" viewBox="0 0 800 220" style="enable-background:new 0 0 800 220;" xml:space="preserve">
<style type="text/css">
	.st0{enable-background:new    ;}
	.st1{fill:#FFFFFF;}
	.st2{fill:#080808;}
	.st3{opacity:0.44;fill:#FFE73B;enable-background:new    ;}
	.st4{display:none;opacity:0.18;}
	.st5{display:inline;}
	.st6{clip-path:url(#SVGID_00000091703043643645089870000007625691392257387176_);}
	.st7{clip-path:url(#SVGID_00000065066618378501833040000008260351742704714410_);}
	.st8{clip-path:url(#SVGID_00000119834310450815500740000014214812214906816640_);}
	.st9{clip-path:url(#SVGID_00000064352802194892902920000013323858540088071810_);}
	.st10{opacity:0.44;fill:#FF39AF;enable-background:new    ;}
	.st11{clip-path:url(#SVGID_00000026884166137561327210000014255614466353354942_);}
</style>
<g id="レイヤー_1">
</g>
<g id="レイヤー_2" class="st4">
</g>
<g id="レイヤー_3">
	<path id="パス_4145_00000164493303812836801010000006341339749922208429_" class="st2" d="M504.563324,61.3138657   c-2.9228516-0.1711235-8.117218,1.1103554-6.4770508-3.1329346c0.3705139-0.9581718-1.6142578-1.0973892-2.584198-0.8744125   c-7.8139648,1.8030586-16.4185181,1.1481667-24.1734619,3.0869141c-0.8029175,0.0478935-1.5856934,0.270153-2.2939148,0.6513634   l-6.8322144,0.1734276c-2.3969116-1.3701363-5.3647156-1.2566338-7.6499634,0.2926216l-11.8672485,0.6561165l-4.8380127-0.1474991   c0.721405-1.0108223,1.443512-2.020565,2.1664734-3.0290794c1.5733337-0.0566826,3.1466675-0.1129303,4.7200012-0.1687469   c-5.4126587-2.4969139-11.6949768-2.525219-18.1177368-2.5476151c-7.2782288-0.0247765-14.4396362,2.4402313-21.143219,1.9304619   c-17.5820007-1.3393097-34.9822693,0.4720306-52.4486389,0.5900002c-0.8010254-0.0149078-1.6021118,0.0244865-2.3977661,0.1179695   c-4.3766479,0.5699081-10.2471313-1.1799965-12.1304016,3.2520599l-45.3343811,1.4361801   c-4.3117065-1.718071-9.1815796-1.1233902-13.8413696-1.014782c-11.8495789,0.2772827-23.6955872,0.7079697-35.5404358,1.141037   c-4.7601166,0.1734276-9.4942932,0.437748-13.8921356-1.0029716c-0.0149384-0.5042229-0.0397186-1.0080872-0.0743408-1.5115891   l-14.4844971,0.4507828c-19.008606-0.4319115,120.4780121-12.2165718,101.7324982-9.0636139   c-18.7844238,3.157711-38.4195862-1.3546524-58.3580627,3.1860123l6.6681824,2.9500008   c-6.4050293,0.1333122-12.7557983-0.0861359-19.1443176-0.3138695c-9.5709686-0.343399-19.2340088-3.344101-29.2817078,0.5369225   c-2.8154755,1.0879555-8.9042816,0.9003372-12.7829437-0.582943c-7.9378662-3.0349846-16.8740082-2.7553253-25.4880066-2.7422905   c-6.5714264,0.0105858-13.7599792-1.0620308-19.8570404,1.9080658c-11.8000031,0.5404472-2.022522,0.7374992-13.9322662-0.2360153   c-2.6231384-0.2136154-10.3132019-1.6720505-10.3132019-1.6720505s-11.5864105-1.1929626-18.5979767,1.3912392   c-4.193718-0.2761307-7.5012589,1.7864914-11.5533752,1.8820648c-1.0348587,0.3835144-2.0921478,0.7422523-3.0975037,1.1552238   c-7.5236816,3.1045609-7.9296036,5.5896568-1.7039185,9.2381935c3.4455948,2.0189819,6.6965027,4.172493,10.0299988,6.2646484   c0.8217392,0.2392578,1.7036667,0.1574402,2.4673843-0.2288818c0.1628418,0.472023,0.2796555,0.9274902,0.4283371,1.3817978   c1.3395004,0.4502106,2.4051666,1.4794693,2.901619,2.8025055c3.2627029,2.177063,0.7929611,4.8816833-0.8259964,6.1643143   c-3.2674179,2.5818253,4.3246994,4.4190979-0.0165176,6.508873c-0.3565674,0.1294937-0.7243195,0.2259293-1.0985794,0.287941   c-1.5756836,1.013916-3.1501923,2.0274734-4.7235336,3.0407486c0.0231476,3.2289352-1.374527,6.3047562-3.8220139,8.411026   c5.6640015,0.3539886,10.8217773,0.8708115,10.8973007,5.1825943c0.0070724,0.4141998,1.8632202,0.7918091,2.8615036,1.1870575   c-3.6756973,2.9641876-11.0200195,1.5092087-14.3546982,4.8839951c-0.7468109,0.0391769-1.4873123,0.1578674-2.2089691,0.3539886   c-0.7553558-0.0899582-1.5191345-0.0828247-2.2726822,0.0212402c-1.753067-0.0085678-3.3547211,0.9920273-4.1158371,2.5712433   c2.0843048,0.476059,4.2365036,0.5786896,6.3566589,0.3032837l1.15522,0.1474991l1.1528549-0.0896683   c2.5853806,2.4390793,3.354744,6.1938477,10.179863,5.5613556c3.9317551,4.1961136,9.9981384,6.7826157,16.7925873,8.8181686   c2.1924286,5.1565857-4.0379639,4.5347595-8.6293488,5.0350952c4.012001,3.8125916,9.5910339,6.6905823,14.6933594,9.8529663   c3.3358612,6.9737701-0.2041321,7.9638519,7.4233856,13.1947632c0.3858643,2.075592,0.9876556,0.6289673,0.9876556,0.6289673   s5.2144165,5.6746521,10.0736542,7.2558136c0.8448944,0.4920502,1.6649933,0.9699707,2.4780121,1.4478455   c17.2279968,5.9295197,35.1215057,4.8922729,53.2557526,1.3487396l35.7693481-8.8299103   c5.1058502,0.117981,9.6075592-1.6437378,14.5493927-2.0331573c9.7125854-1.5788574,19.34021-3.4479523,29.1459961-4.6751404   c17.6752319-2.2101135,34.6979065-6.2327271,52.9690247-6.9206848c27.9730835-1.052597-102.5986328,8.8346558-74.7577209,6.3424988   l14.2614746-0.1474915c2.2245789,1.0898285,4.7819214,1.2870178,7.1472778,0.5510254   c3.1576538-0.0200806,5.0456543,8.6517334,3.6579895,3.7252502c0.8956299-0.117981,5.1919861-6.6339722,6.0899658-6.7531738   c3.2131653,0.3410187,5.4032288,4.1370544,8.5113525,3.6261444c14.2980652-2.3600006,52.4026184,4.3530426,67.1703186,4.4320526   c5.881134,0.105011,11.7528076,0.1746521,17.0958557-1.8986359c-0.2949829-2.8013458,0.9440002-4.7707672,6.1878967-4.7966919   c2.6762695-0.01297,5.3560486-0.2077179,8.0322876-0.3197784c-0.0991211-1.0469818-0.1986389-2.0948944-0.2985229-3.1435242   c3.5317383-0.0719452,7.3065186,0.4720306,9.8105164-1.8219299c1.3546448-1.0832672,5.5755005-0.4920502,4.4474182-3.0267029   c1.4919434-1.0817566,3.2854919-1.6685944,5.1282959-1.677948c3.4727173-0.2595673,53.1377869,8.0853424,52.5985107,5.171936   c-0.456665-2.4603271-5.2557373-1.1021576-8.1124878-1.4797516c-1.6385498-1.0284729-3.6253052-1.3450012-5.5023499-0.8767242   c-6.8723145,1.9127502,1.0384216-2.2821503-1.9764709-1.88797l-4.8380127,0.1628418   c-1.6033325-0.7770386-3.4630737-0.8286133-5.1070557-0.1416016c-1.3247681-0.8288116-2.8681641-1.2399902-4.429718-1.1799927   l-2.7836304-1.4585114c-2.6266785-4.1795502,4.3258667-4.0486145,6.7767639-5.9424896c0.0943909,0,0.1876221,0,0.2831726,0   l0.1369019,2.7989655c1.902832-0.4551697,3.5713501-1.5951996,4.6869202-3.2024994   c1.6513977-1.1655273,3.4096069-2.1718903,5.2510376-3.0054626c2.1853333-0.8023834,3.4373169-1.6106873,1.0018005-2.5960083   c-5.5460205-2.2420349-0.7563477-4.7117233,0.5899963-6.2351227c1.3463745-1.5233994,4.9170532,0.3068161,7.4552307,0.8260193   c4.2019958,0.866127,6.3885193,4.5005493,12.6979675,3.2379456c-8.1290283-0.4295349-0.6407166-6.8935394-8.2859497-7.508316   c4.5559692-1.7156982,10.517334,0.4188766,14.3086853-2.5381851c0.7796021-0.0455856,1.5592041-0.0884399,2.3387451-0.1286316   l4.8285828-0.155777c2.6939087-2.1239853-20.8860168-7.1508026-16.7359619-7.1343079   c5.8889771-0.0877228,11.7361145-1.0061417,17.3684082-2.7281723c4.216156-1.1800003-9.0623779-5.7371597-4.6893005-5.9424896   c7.197998-1.5528564-13.1947937-9.961586-14.3146057-15.5618286c-0.3941345-1.968277,1.4466858-3.2414703,3.6072693-4.4155655   c1.4667664-0.8472595,1.9930115-2.2537689,4.078064-2.7257996c0.8752747-0.1062317,1.71521-0.4092255,2.4567566-0.8861465   c0.4128723-0.5817184,0.9141541-1.0953064,1.4856262-1.5221786c4.5382996-2.350563,8.5797729-4.8179474,5.428009-8.9514771   c-0.4501343-0.1540527-0.9096985-0.2790146-1.3758545-0.3740768c0.0648804-0.0566101,0.1333313-0.1120682,0.1958618-0.1675949   c4.9430237-2.886261,11.1793213-1.2979736,16.7158813-2.1311188   C512.1837769,62.5280762,509.0307922,61.5758095,504.563324,61.3138657z"/>
	<path id="パス_5428_00000054235650791594867020000012725579425154493374_" class="st2" d="M691.0032959,61.3138657   c-2.9228516-0.1711235-8.1171875,1.1103554-6.4770508-3.1329346c0.3705444-0.9581718-1.6141968-1.0973892-2.5841675-0.8744125   c-7.8139648,1.8030586-16.4185181,1.1481667-24.1734619,3.0869141c-0.8029175,0.0478935-1.5856934,0.270153-2.2939453,0.6513634   l-6.8322144,0.1734276c-2.3969116-1.3701363-5.3646851-1.2566338-7.6499023,0.2926216l-11.8673096,0.6561165l-4.8380127-0.1474991   c0.7214355-1.0108223,1.4435425-2.020565,2.1665039-3.0290794c1.5733643-0.0566826,3.1466675-0.1129303,4.7199707-0.1687469   c-5.4126587-2.4969139-11.6949463-2.525219-18.1176758-2.5476151c-7.2782593-0.0247765-14.4396973,2.4402313-21.1432495,1.9304619   c-17.5820312-1.3393097-34.9822998,0.4720306-52.4486694,0.5900002c-0.8010254-0.0149078-1.6021118,0.0244865-2.3977661,0.1179695   c-4.3766479,0.5699081-10.2470703-1.1799965-12.1303711,3.2520599l-45.3343811,1.4361801   c-4.3117065-1.718071-9.1815796-1.1233902-13.8414001-1.014782c-11.8495483,0.2772827-23.6955566,0.7079697-35.5404053,1.141037   c-4.7601318,0.1734276-9.4942932,0.437748-13.8921509-1.0029716c-0.0149231-0.5042229-0.0397034-1.0080872-0.0743408-1.5115891   l-14.4844971,0.4507828c-19.008606-0.4319115,120.4780273-12.2165718,101.7325134-9.0636139   c-18.7844238,3.157711-38.4196167-1.3546524-58.3580627,3.1860123l6.6681824,2.9500008   c-6.4050293,0.1333122-12.7557983-0.0861359-19.1443176-0.3138695c-9.5709839-0.343399-19.2340088-3.344101-29.2817078,0.5369225   c-2.8154907,1.0879555-8.9042969,0.9003372-12.782959-0.582943c-7.9378662-3.0349846-16.8739929-2.7553253-25.4880066-2.7422905   c-6.5714111,0.0105858-13.7599792-1.0620308-19.8570251,1.9080658c-11.8000183,0.5404472-2.022522,0.7374992-13.9322815-0.2360153   c-2.6231384-0.2136154-10.3132019-1.6720505-10.3132019-1.6720505s-11.5863953-1.1929626-18.5979614,1.3912392   c-4.1937256-0.2761307-7.5012817,1.7864914-11.5533752,1.8820648c-1.0348816,0.3835144-2.0921631,0.7422523-3.0975037,1.1552238   c-7.5236816,3.1045609-7.9295959,5.5896568-1.7039185,9.2381935c3.4455872,2.0189819,6.6965027,4.172493,10.0299988,6.2646484   c0.8217163,0.2392578,1.7036743,0.1574402,2.4673767-0.2288818c0.1628418,0.472023,0.2796631,0.9274902,0.4283447,1.3817978   c1.3395081,0.4502106,2.4051514,1.4794693,2.9016113,2.8025055c3.2626953,2.177063,0.7929688,4.8816833-0.8259888,6.1643143   c-3.2674255,2.5818253,4.324707,4.4190979-0.0165405,6.508873c-0.3565674,0.1294937-0.7243042,0.2259293-1.0985718,0.287941   c-1.5756836,1.013916-3.150177,2.0274734-4.7235107,3.0407486c0.0231323,3.2289352-1.3745422,6.3047562-3.8220215,8.411026   c5.6640015,0.3539886,10.8217773,0.8708115,10.8972778,5.1825943c0.0070801,0.4141998,1.8632507,0.7918091,2.8615112,1.1870575   c-3.6756897,2.9641876-11.0200195,1.5092087-14.3547058,4.8839951c-0.7467957,0.0391769-1.4873047,0.1578674-2.2089539,0.3539886   c-0.7553711-0.0899582-1.5191345-0.0828247-2.2726746,0.0212402c-1.7530823-0.0085678-3.3547363,0.9920273-4.1158447,2.5712433   c2.0842896,0.476059,4.2365112,0.5786896,6.3566589,0.3032837l1.1552124,0.1474991l1.1528625-0.0896683   c2.5853882,2.4390793,3.3547363,6.1938477,10.1798706,5.5613556c3.9317627,4.1961136,9.9981384,6.7826157,16.792572,8.8181686   c2.1924438,5.1565857-4.0379639,4.5347595-8.6293335,5.0350952c4.0119934,3.8125916,9.5910339,6.6905823,14.6933594,9.8529663   c3.3358459,6.9737701-0.2041321,7.9638519,7.4233704,13.1947632c0.3858643,2.075592,0.9876709,0.6289673,0.9876709,0.6289673   s5.2144165,5.6746521,10.0736694,7.2558136c0.8448792,0.4920502,1.664978,0.9699707,2.4779968,1.4478455   c17.2279968,5.9295197,35.1214905,4.8922729,53.2557373,1.3487396l35.7693481-8.8299103   c5.1058655,0.117981,9.6075745-1.6437378,14.549408-2.0331573c9.7125854-1.5788574,19.34021-3.4479523,29.1459961-4.6751404   c17.6752319-2.2101135,34.697876-6.2327271,52.9689941-6.9206848c27.9730835-1.052597-102.5986023,8.8346558-74.7576904,6.3424988   l14.2614746-0.1474915c2.2245789,1.0898285,4.7819214,1.2870178,7.1472473,0.5510254   c3.1576843-0.0200806,5.0456848,8.6517334,3.65802,3.7252502c0.8956299-0.117981,5.1919861-6.6339722,6.0899658-6.7531738   c3.2131653,0.3410187,5.4032288,4.1370544,8.5113525,3.6261444c14.2980652-2.3600006,52.4026184,4.3530426,67.1703186,4.4320526   c5.8811646,0.105011,11.7528076,0.1746521,17.0958252-1.8986359c-0.2949829-2.8013458,0.9440308-4.7707672,6.1879272-4.7966919   c2.6762695-0.01297,5.3560181-0.2077179,8.0322876-0.3197784c-0.0991211-1.0469818-0.1986694-2.0948944-0.2985229-3.1435242   c3.5317383-0.0719452,7.3065186,0.4720306,9.8104858-1.8219299c1.3546753-1.0832672,5.5755005-0.4920502,4.4474487-3.0267029   c1.4919434-1.0817566,3.2854614-1.6685944,5.1282959-1.677948c3.4727173-0.2595673,53.1377563,8.0853424,52.5985107,5.171936   c-0.456665-2.4603271-5.2557373-1.1021576-8.1124878-1.4797516c-1.6385498-1.0284729-3.6253052-1.3450012-5.5023804-0.8767242   c-6.8723145,1.9127502,1.0384521-2.2821503-1.9764404-1.88797l-4.8380127,0.1628418   c-1.6033325-0.7770386-3.4630737-0.8286133-5.1070557-0.1416016c-1.3247681-0.8288116-2.8681641-1.2399902-4.4296875-1.1799927   l-2.7836304-1.4585114c-2.626709-4.1795502,4.3258057-4.0486145,6.7767334-5.9424896c0.0943604,0,0.1876221,0,0.2832031,0   l0.1368408,2.7989655c1.902832-0.4551697,3.5713501-1.5951996,4.6869507-3.2024994   c1.6513672-1.1655273,3.4096069-2.1718903,5.2510376-3.0054626c2.1853027-0.8023834,3.4373169-1.6106873,1.00177-2.5960083   c-5.5459595-2.2420349-0.7563477-4.7117233,0.5900269-6.2351227s4.9170532,0.3068161,7.4552612,0.8260193   c4.2019653,0.866127,6.3884888,4.5005493,12.697937,3.2379456c-8.1290283-0.4295349-0.6407471-6.8935394-8.2859497-7.508316   c4.5559692-1.7156982,10.517334,0.4188766,14.3086548-2.5381851c0.7796021-0.0455856,1.5592041-0.0884399,2.3387451-0.1286316   l4.8286133-0.155777c2.6939087-2.1239853-20.8860474-7.1508026-16.7359619-7.1343079   c5.8889771-0.0877228,11.736084-1.0061417,17.3684082-2.7281723c4.2161255-1.1800003-9.0623779-5.7371597-4.6893311-5.9424896   c7.197998-1.5528564-13.1947632-9.961586-14.3145752-15.5618286c-0.394165-1.968277,1.4467163-3.2414703,3.6072388-4.4155655   c1.4667969-0.8472595,1.993042-2.2537689,4.078064-2.7257996c0.8753052-0.1062317,1.71521-0.4092255,2.4567871-0.8861465   c0.4128418-0.5817184,0.9141235-1.0953064,1.4856567-1.5221786c4.538269-2.350563,8.5797729-4.8179474,5.4279785-8.9514771   c-0.4501343-0.1540527-0.909729-0.2790146-1.3758545-0.3740768c0.0648804-0.0566101,0.1333618-0.1120682,0.1958618-0.1675949   c4.9429932-2.886261,11.1793213-1.2979736,16.7158813-2.1311188   C698.6237793,62.5280762,695.4708252,61.5758095,691.0032959,61.3138657z"/>
	<path id="合体_26_00000125567355317477464590000014469296010589421239_" class="st2" d="M162.7044067,181.9842072   c-0.5038605-0.3469238,0.5191345-2.1700287,0-2.5263824c-2.6207123-1.0018311-6.259964-5.9613647-5.9342804-6.5619965   c-0.4826813,0.1180115-0.4566193,0.9605255-0.2784271,1.8006897c0.0965118,0.4514618,0.2287292,0.894577,0.3952484,1.3251343   c-3.7177429-2.7898865-6.901535-6.2276154-9.3986511-10.1480103c-2.1616669-1.4217987-4.1547852-3.0844574-5.9413452-4.9559937   c0.3540497-0.0471802,0.7363434-0.0826111,1.115036-0.1179962c-1.9849091-1.3290253-3.8154144-2.8753357-5.4575043-4.61026   c1.7547302-0.2289276,3.8940582-0.1451416,4.9559479-0.9440002c-2.1654053-1.0518494-4.0824738-2.5521545-5.6238708-4.4013977   c-4.2079315,0.4719849-4.6775055-2.2608795-6.2681732-4.0308838l-0.7079773,0.0660858l-0.707962-0.1062012   c-2.5665665,0.277298-4.7849655-0.6607971-7.1720505-1.0136108c1.1740952-1.0938721,2.6879883-1.0702667,4.1995773-1.0478363   c0.5356903,0.0070648,1.0726852,0.0153351,1.5941238-0.0259705c0.1093292-0.0180969,0.2187958-0.0318756,0.32798-0.0413055   c-0.6843491-0.7976685-1.1681824-1.7700043-1.8702545-2.5499725l-0.7079697,0.0660858l-0.7079697-0.1062012   c-2.5665588,0.2784729-4.7849655-0.6607971-7.1720428-1.0136108c1.1740952-1.0926819,2.6868362-1.0702667,4.2008667-1.0466614   c0.5356979,0.0070801,1.0726929,0.0165405,1.5941238-0.0259552c0.4633865-0.0764771,0.9355621-0.082428,1.4006729-0.0177002   c0.4410629-0.1445007,0.8986893-0.2329254,1.3617859-0.2631531c1.8431702-2.198349,5.6581573-1.5894623,8.0652466-2.9830322   c-0.129776-0.0464172-0.2576904-0.0983276-0.3834381-0.155777c-0.9796295-0.1616211-1.967041-0.2711334-2.9582062-0.3280334   c0.0590515-0.0625305,0.1109161-0.1321564,0.1699677-0.1970673l-0.2418518-0.0436707l-3.4290848,0.1309814   c-0.1100464-0.0743408-0.1793289-0.1955261-0.1876831-0.3280487c-0.0270844-0.7528381,2.1370163-1.9411011,4.6929245-3.1175537   c-1.6707611-0.7881012-3.4993896-1.1844025-5.3465958-1.1587524c0.9365692-0.9598694,1.6167374-2.1398621,1.9777145-3.4314423   c-0.7511902-0.1573334-1.4984818-0.3374786-2.2420349-0.5404358c-0.4826813-0.1180038-0.6820374-0.3186035-0.6797333-0.5793762   c0-1.239006,4.5618439-3.7972412,4.5629883-4.6208801c0-0.1734619-0.2065582-0.2690353-0.7009125-0.2584152   c-0.7929535-0.1345139-1.1681824-0.4236069-1.2283936-0.834259v-0.0259628   c-0.1415939-1.2177582,2.4202118-3.4786377,5.1200104-5.9660797c-1.88797-1.4077301-3.7511749-2.8414459-5.7111664-4.1948929   c-1.9210968-1.3263092-2.8154602-2.4414215-2.6454926-3.5105057c-0.5593185-0.4075012-1.1251221-0.8094864-1.6968231-1.2059631   c-3.831398-2.6467361-3.5788956-4.4533234,1.062027-6.7165604c0.6195297-0.3020782,1.2708893-0.5652237,1.9104385-0.8436966   c0.3962631-0.0133057,0.7909393-0.0582809,1.1800003-0.1345215c-1.8667984-1.1693726-3.1729736-2.53582-2.8556519-4.4674759   c0.1103363-0.5990524,0.3248215-1.1741638,0.6336441-1.6991959c0.3295746-0.1582489,0.6697998-0.2931137,1.0183868-0.4035568   c-0.050705-0.043663-0.105011-0.0849686-0.1593094-0.132164c-2.5522995-1.4549408-5.3972931-1.2307358-8.2434387-1.0065308   c-1.5185013,0.1647491-3.048378,0.1975174-4.5725021,0.0979309c0.2359467-2.7140045,2.570015-3.7252579,5.9436493-4.2102356   c0.0720215-0.0106201,0.1474991-0.0200577,0.2229767-0.0271301c1.6343155-0.1746368,4.0509186,0.1274414,4.6740494-1.0502014   c0.2421417-0.6691132,0.1750107-1.4111176-0.18293-2.0260544c-0.1404419-0.3351135,0.0306778-0.5723038,0.3327332-0.725708   h0.0059128h0.0070572c0.4930573-0.2041092,1.0335083-0.2658463,1.5599823-0.1781769   c6.0439072,1.1292572,12.5279922,0.0684357,18.5354538,1.3192368c0.2640228-0.0008163,0.5274811,0.0260849,0.7858887,0.0802307   c0.3687592,0.0745239,0.7236786,0.2054596,1.0525208,0.3882141l5.1413269-0.2702255l0,0   c0.6058502-0.4553375,1.3043213-0.771965,2.0461426-0.927475c0.6824646-0.1641235,1.3943329-0.1641235,2.0768127,0   l9.0565491,0.8330688l0.2359467-0.0271301c1.5827484-0.1777878,3.1682281-0.3536072,4.7565765-0.5274658l-0.180481-2.6030731   h-0.0388947l-4.8190918,0.1616516h-0.0495605c0.8255157-0.5169373,1.6968384-0.9565887,2.6031494-1.3133469   c2.6277771-0.9477463,5.3756866-1.5209427,8.163208-1.7027435c0.9322357-0.0896759,1.8738556-0.1651993,2.8202057-0.2360001   c0.6313477-0.0495529,1.2649994-0.0719757,1.8974915-0.0719757c1.9025116,0.0320129,3.802002,0.1619873,5.6911316,0.3894043   c2.6887054,0.3923569,5.4138489,0.47155,8.1207123,0.2360001c0.151825-0.0204544,0.3032074-0.0428848,0.4543152-0.0672607   c2.5888824-0.4236221,5.181366-0.742218,7.7738495-0.9876556c10.3840637-0.9805832,20.7975006-0.7776184,31.1732025-1.427803   l0.8813934-0.0578232l0.0708771-0.0070801c0.5840912-0.0540161,1.1714935-0.0634842,1.7570343-0.0283203   c0.2229767,0.0165176,0.4507141,0.0235977,0.6808929,0.0235977c0.7150269,0,1.4620361-0.0672607,2.2088928-0.1345215   c0.6997681-0.0625381,1.3983765-0.1262589,2.0720673-0.1333389c1.8656464-0.0212326,3.5329437,0.3823166,4.447464,2.3942184   l20.3879852-0.7835159l14.0997925-0.5428009c0.901001-0.4892349,1.865509-0.8506393,2.8661804-1.0738068   c2.1064758-0.3942108,4.2467957-0.580368,6.38974-0.5557785c0.3952332-0.0118027,0.7893372-0.0259628,1.1799927-0.0448456   l0.4483948-0.0212326c8.8606567-0.4212646,17.7259521-0.7150879,26.59021-1.0065384   c3.6225281-0.1179962,7.2297974-0.1581192,10.4761047-1.6661606c-0.02005-0.4413223-0.0343018-0.8814621-0.0389099-1.323967l0,0   l0,0l11.0188599-0.4306946c0.9061584-0.092041,1.3322449-0.1876144,1.3404541-0.285553   c-0.045929-0.4554825-9.1556396-0.9605255-21.2258606-1.3912201h0.0236206l0,0   c5.969574-1.1587677,11.9699707-2.9146042,18.4670105-0.590004c2.2054443,0.7894211,6.8120728,0.2796631,9.660675-1.2378235   c5.8304443-3.1033936,12.625946-3.3689041,19.163208-3.8479805c4.9854431-0.3646202,10.3709412-1.7062798,15.1854248,0.5357208   c2.7399902-0.0601845,5.4822693-0.0259628,8.2245789,0.0106239c6.2611084,0.2725677,12.5341797-0.0276222,18.7406921-0.8968048   c1.9765625-0.3351135,3.7086792-0.0719757,5.1554565-1.9316597c3.1317749-4.0249825,8.1136475-4.5890198,13.5983582-2.7305222   c1.6296997-0.1647949,3.2759705-0.0117035,4.8475037,0.4507637c1.3152466,0.3634834,2.6745605,0.5429802,4.039093,0.5333633   c0.8095093,0.276123,1.6343079,0.5298157,2.4213562,0.8330803c2.9322815,1.1339798,4.5241089,2.2337379,4.8379822,3.4880829   c0.3174744,1.2732201-0.6867981,2.7045631-2.9500122,4.4910774c-2.4863281,1.9588089-4.816803,4.0249863-7.2122192,6.0427856   c-0.6080017,0.2554855-1.2971191,0.2339554-1.88797-0.0590057c-0.092041,0.417717-0.1534119,0.8259964-0.2359619,1.2307434   c-0.8256531,0.4182587-1.4725342,1.1205292-1.8218384,1.9776764c-0.0495605,0.121933-0.0939331,0.2462234-0.1333923,0.3728867   c-0.0267944,0.0865326-0.050415,0.1746445-0.0708618,0.2643204c-1.1334839,0.8228607-1.4058533,2.3983841-0.6147766,3.5541534   c0.4335632,0.682991,0.9864197,1.2825165,1.632019,1.7699966c0.2222595,0.1650162,0.4105225,0.3713608,0.5545654,0.6076965   c0.9145203,1.5682144-1.9977417,3.0927887-1.0843811,4.386055c0.2545471,0.3073502,0.5829468,0.5449142,0.9545898,0.6903076   l0.0649719,0.0271378c0.0708618,0.0228119,0.1423035,0.0432663,0.2147522,0.0613632   c0.1852417,0.0401154,0.3870544,0.0625305,0.5734253,0.1014786l1.0738525,0.6761322   c0.423645-0.0283203,0.8484192-0.043663,1.274353-0.0424728c3.9577332,0.0094376,7.8304749,0.0224152,11.164032,1.8313599   l-2.9133911,0.1286163l-1.3381653,2.2042389l2.9806824,0.1014709l7.3159485-0.4908752   c1.344635-1.1268158,3.2760925-1.2170944,4.7200012-0.2206573l4.2113647-0.1333466   c0.4256592-0.2722092,0.9120789-0.4344025,1.4159546-0.4719925c4.7825012-1.4160004,10.0831604-0.9498901,14.9034119-2.2691498   c0.5982056-0.1628342,1.8207092-0.0625305,1.5906677,0.6324768c-0.8047791,2.4426117,1.03479,2.3600006,2.7304688,2.2856598   c0.4190063-0.0284729,0.839325-0.0339966,1.2590942-0.0165329c2.7529297,0.1864471,4.6952209,0.8755646,5.0420532,3.1045761   c-1.2252197,0.1793365-2.4639893,0.2496109-3.7015991,0.2100372c-0.3929443,0-0.7858887,0-1.1799927,0   c-0.117981,1.5540619,1.4561157,1.4856186,2.9193115,1.4159927c0.4190063-0.0284805,0.839325-0.0339966,1.2590637-0.0165253   c2.7541199,0.1864395,4.6963806,0.8755646,5.0445251,3.1081161c-1.225647,0.1793365-2.4646912,0.2496338-3.7027588,0.2100372   c-2.3115845,0-4.6243591-0.0094376-6.6079712,1.3558197l-0.117981,0.1180115   c0.2888184,0.0698013,0.5724487,0.1601028,0.8484192,0.2702255c1.9375305,3.0030975-0.5570068,4.8002319-3.355896,6.5136032   c-0.3608398,0.3215179-0.6708069,0.6959076-0.919281,1.1103745c-0.4414978,0.3415604-0.9630737,0.5641937-1.5151978,0.6466446   c-1.2850037,0.3457336-1.6095276,1.3676147-2.5157166,1.9871216c-1.3334045,0.8555069-2.4779663,1.7817993-2.2290649,3.21315   c0.0317078,0.1816559,0.0818176,0.3595886,0.1498108,0.5309982c2.7399902,2.263237,5.6356812,4.3565598,5.2191162,5.444519   c3.0927429,2.5086899,5.9118042,4.6869583,3.4349976,5.3206253c-2.6939087,0.1534042,5.483429,3.4538651,2.8827209,4.3152542   c-1.7020264,0.6187592-3.4512634,1.0982361-5.2309265,1.4337006c0.5593262,0.381134,0.7870483,0.7292328,0.4873047,1.0088959   l-2.9759216,0.1179962c-0.4815369,0.029892-0.961792,0.0617523-1.4407349,0.0955811   c-0.057312,0.0527039-0.1156616,0.1034393-0.1745605,0.1522064c3.2745056,1.1587677,10.1020203,3.2733307,8.9338074,4.3659973   l-2.9770508,0.1180115l-1.4407349,0.0955811c-2.3399658,2.1534882-6.0120544,0.6076965-8.8216248,1.8608551   c4.711792,0.4389496,0.0884399,5.1459808,5.0988464,5.449234c-3.8940735,0.9239349-5.2297668-1.7157135-7.8222656-2.3411102   c-1.5647278-0.3799744-3.7606812-1.7027435-4.5936584-0.5982666c-0.8330078,1.1044617-3.7890625,2.9051666-0.3740845,4.5288391   c1.5009155,0.7079926,0.7279968,1.2980042-0.620697,1.8880005c-1.1520386,0.6184692-2.2381287,1.3526764-3.241394,2.1912537   c-0.4223328,0.7434082-1.0244446,1.3690033-1.7511292,1.8195648l0.6490479-0.0271301   c0.7965698-0.1239014,0.3540649,0.3681488-0.0779114,0.8602295c-0.5734253,0.653717-1.1281433,1.3097992,1.2979736,0.5121155   c1.1664429-0.3412628,2.4258118-0.1068573,3.3913269,0.6313171c0.6255798,0.0637817,1.256073,0.0661621,1.8820801,0.0070648   c1.464325-0.0849609,2.9240723-0.1710968,3.1163635,1.0619965c0.1699829,1.098587-7.9920654,0.0070801-16.1824951-1.2696838   c0.0498352,0.3642883,0.170105,0.7153778,0.3540649,1.0336914l1.7145386,1.0619965   c0.9809265-0.0377808,1.9450073,0.2639465,2.7293091,0.8543091c0.9980774-0.5014343,2.1819763-0.4645691,3.1470642,0.0979309   l2.9806824-0.1180115c0.7965393-0.1238861,0.3540649,0.3681641-0.0779419,0.8602295   c-0.5734253,0.653717-1.1281433,1.3097992,1.2979736,0.5121307c1.1664734-0.3414764,2.4258423-0.1070404,3.3913574,0.6313019   c0.6252747,0.0638123,1.255188,0.0661774,1.8809204,0.0070801c1.464325-0.0849762,2.9252014-0.1711121,3.1163635,1.0619965   c0.1852417,1.200058-9.5745544-0.2135925-18.4516296-1.628418c-6.7743225-1.0785217-13.0354614-2.1582031-13.9606323-2.0744324   c-1.1651611,0.022049-2.2848206,0.4564514-3.1600342,1.2260284c0.6915588,1.8407898-1.9092712,1.4159851-2.7458801,2.2042389   c-1.270874,1.3711548-3.0679626,1.3522644-4.8757019,1.3334045c-0.3918152,0-0.7847595-0.0082703-1.1729431,0   c0.0604858,0.7614746,0.1208496,1.5225983,0.180481,2.2832947c-1.6520386,0.0849609-3.3040466,0.2359924-4.9559326,0.2418976   c-3.2297363,0.0236053-3.9990845,1.4573059-3.8197327,3.4939728c-3.2957153,1.5127563-6.9159546,1.467926-10.5397644,1.3983002   c-9.1025085-0.0436554-34.0241089-3.2768555-42.8340759-1.5505066c-1.8914185,0.4724426-3.8463745,0.6381531-5.7902222,0.4908752   l-1.6590881,0.2643127c0.6454468,2.7140045-1.0714111,2.4213715-2.7872314,2.1240082   c-0.5152588-0.103775-1.0381165-0.164566-1.563446-0.1817322c-1.4525452,0.5386505-3.070282,0.3947754-4.4049683-0.3917542   l-8.7886658,0.1180115c-9.0222473,0.9687805-18.3288879-0.8979797-27.6320496-2.76828   c-9.4541016,0.6100616-18.9224854,1.0466614-28.3825073,1.4832611c-3.7384949,0.1585083-7.4834595,0.0686188-11.2099915-0.2690277   c-1.9211121-0.1475067-3.7536316-0.2949982-5.7254333-0.3386688c-2.6915894,0.6702423-5.5152588,1.2980042-8.6777039,1.7700043   c-2.940506,0.4377899-6.6422577-0.1911621-10.356842-0.826004c-1.4597321-0.2466125-2.9229279-0.4944153-4.3424683-0.6773224   c-2.0469971-0.1153412-4.1006165-0.0033417-6.1229706,0.3339539c-3.0456543,0.2879181-8.6518097,2.7836151-11.8000031,2.7021942   c-1.3522797,0.3952942-2.9582062,2.3246002-3.8751831,2.3859558c-2.069046,0.1181335-4.1426849,0.1283722-6.2127228,0.0306854   c-3.6272888-0.3040619-7.2799377,0.0014496-10.8063965,0.9038849c-8.7650146,2.0355072-22.2477264,7.0434113-32.7779846,7.0434113   C167.9279938,183.3671265,165.2377014,182.9236755,162.7044067,181.9842072z M452.9017334,154.4831238l1.1705017-0.0483704   l-0.0625305-1.5694122h-0.1745605c-0.7336121,0.5240936-1.5490417,0.9228363-2.4131775,1.1800079   c0.5171204,0.0525665,1.0194092,0.2035675,1.4797668,0.4448547V154.4831238z M156.8833466,176.0263672l0.2797394,0.2265625   c0.0283661,0.185257,0.0211639,0.2655182-0.0082092,0.2655182   C157.1099243,176.5184479,157.0014648,176.3202057,156.8833466,176.0263672z M300.2426758,70.9627075h-0.009491   c1.1445618-0.6961899,2.2904358-1.3912201,3.9695435-2.4095535c-8.1584473-0.2171173-16.5743103-0.3894043-23.8879395-0.4897003   H280.375h-0.0577698l0.4602051-0.0448456c7.9425354-0.7669983,16.0184631-1.5340042,24.3280029-0.0070801h-0.0070496h0.0070496   l-0.8850098,0.5369034c4.9677734,0.132164,9.8352661,0.280838,14.3004456,0.4401474h-0.0283813h0.0070801   c-1.2531738,0.2430801-2.5063477,0.4625549-3.7618408,0.6076965c-4.8379822,0.5664062-9.6382141,1.1186371-14.5045471,1.3664322   H300.2426758z M260.6288452,68.5507889c-0.919281-0.1073837-1.3475037-0.1982346-1.346344-0.2749405   c-0.0873108-0.3540039,8.9679565-0.3846741,21.034729-0.2194748h-0.0602112h0.0577698   c-4.4345093,0.4283371-8.8299866,0.8413391-13.2006836,0.8413391c-2.1654053,0.010025-4.3294983-0.1058044-6.4815063-0.3469086   L260.6288452,68.5507889z"/>
	<g class="st0">
		<path class="st1" d="M163.7142944,69.8660812h16.8772278l12.9131622,79.2904587h-12.459137l-2.2655029-15.7444611v0.2258606    h-14.158844l-2.2655182,15.5186005h-11.5545502L163.7142944,69.8660812z M177.3073425,122.8773499l-5.5508423-39.1923676    h-0.2258606l-5.4378967,39.1923676H177.3073425z"/>
		<path class="st1" d="M197.3581238,130.8066254V88.2160034c0-12.233284,6.3424988-19.4826813,18.3499298-19.4826813    c12.0062714,0,18.3499146,7.2493973,18.3499146,19.4826813v8.3821487h-11.7804108v-9.1749649    c0-5.2097473-2.4913635-7.3623276-6.2295685-7.3623276s-6.2295685,2.1525803-6.2295685,7.3623276v44.2891846    c0,5.2108917,2.4913635,7.2493896,6.2295685,7.2493896s6.2295685-2.0384979,6.2295685-7.2493896v-12.1192017h11.7804108    v11.2134552c0,12.2332764-6.3436432,19.4826813-18.3499146,19.4826813    C203.7006226,150.2893066,197.3581238,143.0399017,197.3581238,130.8066254z"/>
		<path class="st1" d="M250.1446838,81.1936188h-13.0260925V69.8660812h38.5124817v11.3275375h-13.0260925v67.9629211h-12.4602966    V81.1936188z"/>
		<path class="st1" d="M280.0514526,130.3537598V69.8660812h12.4602966v61.3934097    c0,5.6637726,2.3784485,7.7022705,6.3436584,7.7022705c3.9640808,0,6.3424988-2.0384979,6.3424988-7.7022705V69.8660812    h12.0074158v60.4876785c0,12.686142-6.3436279,19.9355469-18.5769348,19.9355469    C286.3951111,150.2893066,280.0514526,143.0399017,280.0514526,130.3537598z"/>
		<path class="st1" d="M334.3118896,69.8660812h16.8772278l12.913147,79.2904587h-12.4602966l-2.2655029-15.7444611v0.2258606    h-14.158844l-2.2655029,15.5186005h-11.5534058L334.3118896,69.8660812z M347.9037781,122.8773499l-5.5496826-39.1923676    h-0.2270203l-5.4367676,39.1923676H347.9037781z"/>
		<path class="st1" d="M368.9743652,69.8660812h12.4602966V137.82901h20.5013428v11.3275299h-32.9616394V69.8660812z"/>
		<path class="st1" d="M406.8092651,69.8660812h12.4602966v79.2904587h-12.4602966V69.8660812z"/>
		<path class="st1" d="M437.1654663,81.1936188h-13.0260925V69.8660812h38.5124817v11.3275375h-13.0260925v67.9629211h-12.4602966    V81.1936188z"/>
		<path class="st1" d="M467.525116,69.8660812h33.9814758v11.3275375h-21.5211792v20.955368h17.1030884v11.3263855h-17.1030884    V137.82901h21.5211792v11.3275299H467.525116V69.8660812z M485.6480408,51.5161552h13.5930481l-12.1203613,13.0260963h-9.4008179    L485.6480408,51.5161552z"/>
		<path class="st1" d="M505.5858765,130.3537598v-4.5310211h11.7803955v5.4367523    c0,5.6637726,2.4925537,7.7022705,6.456604,7.7022705s6.456604-2.0384979,6.456604-7.9292755    c0-6.5695114-2.4925537-10.7605896-10.6477051-17.8958969c-10.4206238-9.1749649-13.8188782-15.631546-13.8188782-24.6935806    c0-12.460289,6.4565735-19.7096863,18.5769348-19.7096863c12.1192017,0,18.1229248,7.2493973,18.1229248,19.9355469v3.2853317    h-11.7804565v-4.0781403c0-5.6626205-2.2655029-7.8152008-6.2295532-7.8152008    c-3.96521,0-6.2295532,2.1525803-6.2295532,7.5893402c0,5.7766953,2.6043091,9.9677734,10.7605591,17.1042404    c10.4206543,9.1749573,13.7059937,15.5174561,13.7059937,25.3722992c0,12.9131622-6.5706787,20.1625671-18.8039551,20.1625671    S505.5858765,143.0399017,505.5858765,130.3537598z"/>
	</g>
	<g class="st0">
		<path class="st1" d="M566.8536987,87.0843964h3.4627686c2.4222412,0,3.4628296,1.1258392,3.4628296,3.4201584v0.9138107    c0,1.5291595-0.4885864,2.5074997-1.5291748,2.9315567v0.0426407c1.168457,0.3618393,1.5510254,1.4657822,1.5510254,3.1447449    v2.6135178c0,0.7225189,0.020752,1.253746,0.2546997,1.8057251h-2.3795776    c-0.1279297-0.3825836-0.2120361-0.6165085-0.2120361-1.8276215v-2.7195282c0-1.3805084-0.40448-1.8264694-1.4669189-1.8264694    h-0.8066406v6.3736191h-2.3369751V87.0843964z M570.039917,93.4580154c0.8711548,0,1.4024048-0.3825836,1.4024048-1.5718002    v-1.1477356c0-1.0624619-0.3606567-1.5291595-1.189209-1.5291595h-1.062439v4.2486954H570.039917z"/>
		<path class="st1" d="M575.1367188,98.4292221V87.0843964h2.3369751v11.5153732    c0,1.0624619,0.4459839,1.4450378,1.1903687,1.4450378c0.7432861,0,1.189209-0.382576,1.189209-1.4450378V87.0843964h2.251709    v11.3448257c0,2.3795929-1.189209,3.739357-3.4835815,3.739357    C576.3259888,102.1685791,575.1367188,100.808815,575.1367188,98.4292221z"/>
		<path class="st1" d="M583.5695801,87.0843964h3.5261841c2.4222412,0,3.4639282,1.1258392,3.4639282,3.4201584v0.5946121    c0,1.5303116-0.4678345,2.4867554-1.5084229,2.91082v0.0426331c1.2526245,0.4252167,1.7412109,1.5303116,1.7412109,3.1021118    v1.2744904c0,2.2954712-1.2099609,3.5273285-3.5480347,3.5273285h-3.6748657V87.0843964z M586.8203735,93.1388092    c0.8711548,0,1.4024048-0.381424,1.4024048-1.5717926v-0.828537c0-1.0624619-0.3618774-1.5291595-1.1903687-1.5291595h-1.1258545    v3.9294891H586.8203735z M587.2444458,99.8316269c0.7870483,0,1.2110596-0.3606873,1.2110596-1.4657822V97.069458    c0-1.3805084-0.4459229-1.8057251-1.5084229-1.8057251h-1.0405273v4.567894H587.2444458z"/>
		<path class="st1" d="M591.9586792,87.0843964h3.4639282c2.4210815,0,3.4627686,1.1258392,3.4627686,3.4201584v0.9138107    c0,1.5291595-0.4885864,2.5074997-1.5302734,2.9315567v0.0426407c1.168457,0.3618393,1.5510254,1.4657822,1.5510254,3.1447449    v2.6135178c0,0.7225189,0.0219116,1.253746,0.2557983,1.8057251h-2.3795776    c-0.1278687-0.3825836-0.2131958-0.6165085-0.2131958-1.8276215v-2.7195282c0-1.3805084-0.4033203-1.8264694-1.4657593-1.8264694    h-0.8078003v6.3736191h-2.3369141V87.0843964z M595.1460571,93.4580154c0.8711548,0,1.4024048-0.3825836,1.4024048-1.5718002    v-1.1477356c0-1.0624619-0.3618774-1.5291595-1.1903687-1.5291595h-1.0625v4.2486954H595.1460571z"/>
		<path class="st1" d="M600.3269653,87.0843964h2.3369751v14.8721542h-2.3369751V87.0843964z"/>
		<path class="st1" d="M609.1435547,101.9139099c-0.4459839,0.1705475-0.9771729,0.2546692-1.5510254,0.2546692    c-2.2943726,0-3.5480957-1.3597641-3.5480957-3.739357v-7.8186493c0-2.3795929,1.2537231-3.739357,3.5480957-3.739357    c2.2943115,0,3.5480347,1.3597641,3.5480347,3.739357v7.8186493c0,1.0198212-0.2339478,1.8276215-0.6591187,2.4441223    c0.1705322,0.2973022,0.4459229,0.3399429,0.8711548,0.3399429h0.3618164v2.123764h-0.6164551    C610.2267456,103.3370514,609.4189453,103.0190048,609.1435547,101.9139099z M608.8035889,98.5778732v-8.1159515    c0-1.0624619-0.4678345-1.4657822-1.2110596-1.4657822c-0.7444458,0-1.2111206,0.4033203-1.2111206,1.4657822v8.1159515    c0,1.0624619,0.4666748,1.4669342,1.2111206,1.4669342C608.3357544,100.0448074,608.8035889,99.6403351,608.8035889,98.5778732z"/>
		<path class="st1" d="M612.4334717,98.4292221V87.0843964h2.3369751v11.5153732    c0,1.0624619,0.4459839,1.4450378,1.1903687,1.4450378c0.7432861,0,1.189209-0.382576,1.189209-1.4450378V87.0843964h2.251709    v11.3448257c0,2.3795929-1.189209,3.739357-3.4835205,3.739357    C613.6227417,102.1685791,612.4334717,100.808815,612.4334717,98.4292221z"/>
		<path class="st1" d="M620.866333,87.0843964h6.3736572v2.1249237h-4.0366821v3.9294891h3.2081299v2.1249237h-3.2081299v4.567894    h4.0366821v2.1249237h-6.3736572V87.0843964z"/>
	</g>
	<g class="st0">
		<path class="st1" d="M566.8536987,115.4043961h2.9315796l2.2735596,8.9018555h0.0426025v-8.9018555h2.0823364v14.8721542    h-2.4014893l-2.8048096-10.8573837h-0.0415039v10.8573837h-2.0822754V115.4043961z"/>
		<path class="st1" d="M577.5370483,115.4043961h3.166687l2.4210815,14.8721542h-2.3369751l-0.4240723-2.9534607v0.0426407    h-2.6561279l-0.4252319,2.91082h-2.1663818L577.5370483,115.4043961z M580.0872192,125.346817l-1.041748-7.3507996h-0.0414429    l-1.0198364,7.3507996H580.0872192z"/>
		<path class="st1" d="M584.0570068,115.4043961h3.4639893c2.4210815,0,3.4627686,1.1258392,3.4627686,3.4201584v0.9138107    c0,1.5291595-0.4885864,2.5074997-1.5303345,2.9315643v0.0426331c1.1685181,0.3618393,1.5510864,1.4657822,1.5510864,3.1447449    v2.6135178c0,0.7225189,0.0219116,1.2537537,0.2557983,1.8057251h-2.3795776    c-0.1279297-0.3825836-0.2131958-0.6165009-0.2131958-1.8276215v-2.7195282c0-1.3805084-0.4033203-1.8264694-1.4657593-1.8264694    h-0.8078003v6.3736191h-2.3369751V115.4043961z M587.2444458,121.7780151c0.8711548,0,1.4023438-0.3825836,1.4023438-1.5718002    v-1.1477356c0-1.0624619-0.3618164-1.5291595-1.1903687-1.5291595h-1.062439v4.2486954H587.2444458z"/>
		<path class="st1" d="M592.3400879,126.7492218v-11.3448257h2.3380737v11.5153732    c0,1.0624619,0.4459839,1.4450378,1.18927,1.4450378c0.7432251,0,1.1903687-0.382576,1.1903687-1.4450378v-11.5153732h2.2516479    v11.3448257c0,2.3795929-1.1903687,3.7393494-3.4846802,3.7393494S592.3400879,129.1288147,592.3400879,126.7492218z"/>
		<path class="st1" d="M602.6005249,117.5293198h-2.4429321v-2.1249237h7.2229004v2.1249237H604.9375v12.7472305h-2.3369751    V117.5293198z"/>
		<path class="st1" d="M608.0580444,126.7492218v-7.8186493c0-2.3795929,1.2537842-3.739357,3.5480957-3.739357    c2.2954712,0,3.5480347,1.3597641,3.5480347,3.739357v7.8186493c0,2.3795929-1.2525635,3.7393494-3.5480347,3.7393494    C609.3118286,130.4885712,608.0580444,129.1288147,608.0580444,126.7492218z M612.8171997,126.8978729v-8.1159515    c0-1.0624619-0.4666748-1.4657822-1.2110596-1.4657822c-0.7432861,0-1.2111206,0.4033203-1.2111206,1.4657822v8.1159515    c0,1.0624619,0.4678345,1.4669342,1.2111206,1.4669342C612.3505249,128.3648071,612.8171997,127.9603348,612.8171997,126.8978729z    "/>
	</g>
</g>
</svg>