<svg version="1.0" xmlns="http://www.w3.org/2000/svg" width="200.000000pt" height="200.000000pt" viewBox="0 0 200.000000 200.000000" preserveAspectRatio="xMidYMid meet">

<g transform="translate(0.000000,200.000000) scale(0.100000,-0.100000)" fill="#ffffff" stroke="none">
<path d="M901 1541 c-59 -212 -91 -344 -85 -352 4 -8 36 -54 71 -103 l63 -90 0 -223 0 -222 -29 -16 c-96 -49 -115 -183 -37 -261 65 -65 167 -65 232 0 78 78 59 212 -37 261 l-29 16 0 225 0 225 75 99 75 99 -97 341 c-53 187 -100 340 -103 340 -3 0 -48 -152 -99 -339z m144 -1057 c31 -14 65 -64 65 -94 0 -7 -7 -27 -16 -45 -19 -41 -73 -69 -114 -60 -37 8 -77 48 -85 85 -9 40 19 95 58 114 40 20 51 20 92 0z" fill="#ffffff"/>
</g>
</svg>