<?xml version="1.0" standalone="no"?>
<!DOCTYPE svg PUBLIC "-//W3C//DTD SVG 20010904//EN"
 "http://www.w3.org/TR/2001/REC-SVG-20010904/DTD/svg10.dtd">
<svg version="1.0" xmlns="http://www.w3.org/2000/svg"
 width="1280.000000pt" height="1280.000000pt" viewBox="0 0 1280.000000 1280.000000"
 preserveAspectRatio="xMidYMid meet">
<metadata>
Created by potrace 1.16, written by Peter Selinger 2001-2019
</metadata>
<g transform="translate(0.000000,1280.000000) scale(0.100000,-0.100000)"
fill="#000000" stroke="none">
<path d="M7473 7497 c-76 -52 -268 -186 -428 -298 -159 -113 -378 -267 -486
-342 l-196 -137 -1415 0 -1414 0 -78 140 c-92 166 -143 236 -233 320 -350 327
-902 369 -1313 98 -90 -59 -218 -184 -279 -273 -65 -93 -123 -215 -157 -330
-26 -83 -28 -104 -28 -270 -1 -160 2 -190 23 -265 109 -393 411 -683 804 -772
120 -27 335 -29 452 -4 202 44 369 132 511 271 96 94 142 159 239 338 l58 107
1431 0 1431 0 635 -481 c572 -433 638 -480 665 -476 35 6 2486 703 2965 843
803 235 1380 417 1380 434 0 44 -3061 900 -3955 1105 -199 46 -406 85 -450 85
-13 0 -85 -42 -162 -93z m-4826 -448 c147 -46 299 -146 379 -251 56 -72 129
-223 151 -313 14 -56 14 -76 4 -132 -14 -75 -83 -238 -130 -307 -103 -150
-331 -304 -498 -337 -58 -12 -66 -11 -145 15 -204 67 -345 158 -435 279 -129
175 -180 377 -138 540 62 240 323 484 565 531 48 9 180 -5 247 -25z"/>
</g>
</svg>
