<svg xmlns="http://www.w3.org/2000/svg" width="66" height="66" viewBox="0 0 66 66">
  <g id="jpen_pagetop" transform="translate(-738 -723)">
    <rect id="長方形_7" data-name="長方形 7" width="66" height="66" transform="translate(738 723)" opacity="0"/>
    <g id="jpen_pagetop-2" data-name="jpen_pagetop" transform="translate(296.556 293.948)">
      <path id="パス_4" data-name="パス 4" d="M1233.4,12426.742l12.045-6.954-12.045-6.955-6.955-12.045-6.954,12.045-12.046,6.955,12.046,6.954,6.954,12.046Zm-11.463-6.954a4.508,4.508,0,1,1,4.508,4.508A4.508,4.508,0,0,1,1221.936,12419.788Z" transform="translate(-752 -11963.648)"/>
      <path id="パス_4_-_アウトライン" data-name="パス 4 - アウトライン" d="M1226.444,12438.788l6.955-12.046,12.045-6.954-12.045-6.955-6.955-12.045-6.954,12.045-12.046,6.955,12.046,6.954,6.954,12.046m0-23.509a4.508,4.508,0,1,1-4.508,4.509,4.509,4.509,0,0,1,4.508-4.509m0,25.009h0a1.5,1.5,0,0,1-1.3-.75l-6.753-11.7-11.7-6.753a1.5,1.5,0,0,1,0-2.6l11.7-6.754,6.753-11.7a1.5,1.5,0,0,1,2.6,0l6.754,11.7,11.7,6.754a1.5,1.5,0,0,1,0,2.6l-11.7,6.753-6.754,11.7A1.5,1.5,0,0,1,1226.444,12440.288Zm0-23.509a3.008,3.008,0,1,0,3.009,3.009A3.012,3.012,0,0,0,1226.444,12416.779Z" transform="translate(-752 -11963.648)" fill="#fff"/>
      <path id="パス_5" data-name="パス 5" d="M2.626-9.1H.52V0H1.95V-3.419h.676c1.43,0,2.132-.793,2.132-2.249V-6.851C4.758-8.307,4.056-9.1,2.626-9.1Zm0,1.3c.455,0,.7.208.7.858v1.365c0,.65-.247.858-.7.858H1.95V-7.8ZM8.749-9.1H6.656L5.2,0H6.513L6.76-1.651H8.515L8.762,0H10.2ZM7.618-7.488h.026l.676,4.6H6.942ZM13.325-3.77h.65v1.677c0,.65-.286.884-.741.884s-.741-.234-.741-.884V-7.007c0-.65.286-.9.741-.9s.741.247.741.9v.975h1.352v-.884c0-1.456-.728-2.288-2.132-2.288s-2.132.832-2.132,2.288v4.732C11.063-.728,11.791.1,13.195.1s2.132-.832,2.132-2.288V-5.07h-2Zm4.68-4.03h2.47V-9.1h-3.9V0h3.9V-1.3h-2.47V-3.965h1.963v-1.3H18.005Zm3.263,0h1.5V0h1.43V-7.8h1.5V-9.1h-4.42Zm6.682.793c0-.65.286-.9.741-.9s.741.247.741.9v4.914c0,.65-.286.9-.741.9s-.741-.247-.741-.9ZM26.52-2.184A2.019,2.019,0,0,0,28.691.1a2.019,2.019,0,0,0,2.171-2.288V-6.916A2.019,2.019,0,0,0,28.691-9.2,2.019,2.019,0,0,0,26.52-6.916Zm7.7-6.916H32.11V0h1.43V-3.419h.676c1.43,0,2.132-.793,2.132-2.249V-6.851C36.348-8.307,35.646-9.1,34.216-9.1Zm0,1.3c.455,0,.7.208.7.858v1.365c0,.65-.247.858-.7.858H33.54V-7.8Z" transform="translate(455.999 486.86)" fill="#fff"/>
      <path id="パス_5_-_アウトライン" data-name="パス 5 - アウトライン" d="M13.195-10.7a3.876,3.876,0,0,1,1.88.447V-10.6H27.188v.16a4.151,4.151,0,0,1,1.5-.264,3.941,3.941,0,0,1,1.919.457V-10.6h3.606a3.425,3.425,0,0,1,3.632,3.749v1.183A3.4,3.4,0,0,1,35.04-1.99V1.5H30.61V1.147a3.941,3.941,0,0,1-1.919.457,3.5,3.5,0,0,1-3-1.427V1.5H15.075V1.157a3.876,3.876,0,0,1-1.88.447,4.194,4.194,0,0,1-1.243-.179l.012.075H-.98V-10.6H2.626a3.607,3.607,0,0,1,2.6.95l.152-.95h4.651l.21,1.31A3.454,3.454,0,0,1,13.195-10.7ZM3.45,1.443l.573-3.581a3.853,3.853,0,0,1-.573.148Z" transform="translate(455.999 486.86)" fill="#fff"/>
      <path id="パス_6" data-name="パス 6" d="M2.626-9.1H.52V0H1.95V-3.419h.676c1.43,0,2.132-.793,2.132-2.249V-6.851C4.758-8.307,4.056-9.1,2.626-9.1Zm0,1.3c.455,0,.7.208.7.858v1.365c0,.65-.247.858-.7.858H1.95V-7.8ZM8.749-9.1H6.656L5.2,0H6.513L6.76-1.651H8.515L8.762,0H10.2ZM7.618-7.488h.026l.676,4.6H6.942ZM13.325-3.77h.65v1.677c0,.65-.286.884-.741.884s-.741-.234-.741-.884V-7.007c0-.65.286-.9.741-.9s.741.247.741.9v.975h1.352v-.884c0-1.456-.728-2.288-2.132-2.288s-2.132.832-2.132,2.288v4.732C11.063-.728,11.791.1,13.195.1s2.132-.832,2.132-2.288V-5.07h-2Zm4.68-4.03h2.47V-9.1h-3.9V0h3.9V-1.3h-2.47V-3.965h1.963v-1.3H18.005Zm3.263,0h1.5V0h1.43V-7.8h1.5V-9.1h-4.42Zm6.682.793c0-.65.286-.9.741-.9s.741.247.741.9v4.914c0,.65-.286.9-.741.9s-.741-.247-.741-.9ZM26.52-2.184A2.019,2.019,0,0,0,28.691.1a2.019,2.019,0,0,0,2.171-2.288V-6.916A2.019,2.019,0,0,0,28.691-9.2,2.019,2.019,0,0,0,26.52-6.916Zm7.7-6.916H32.11V0h1.43V-3.419h.676c1.43,0,2.132-.793,2.132-2.249V-6.851C36.348-8.307,35.646-9.1,34.216-9.1Zm0,1.3c.455,0,.7.208.7.858v1.365c0,.65-.247.858-.7.858H33.54V-7.8Z" transform="translate(455.999 486.86)"/>
    </g>
  </g>
</svg>